<?xml version="1.0" encoding="UTF-8"?>
<svg width="192px" height="192px" viewBox="0 0 192 192" version="1.1" xmlns="http://www.w3.org/2000/svg" xmlns:xlink="http://www.w3.org/1999/xlink">
    <!-- Generator: Sketch 51 (57462) - http://www.bohemiancoding.com/sketch -->
    <title>Artboard</title>
    <desc>Created with Sketch.</desc>
    <defs></defs>
    <g id="Artboard" stroke="none" stroke-width="1" fill="none" fill-rule="evenodd">
        <g id="Educational-Hat" transform="translate(12.000000, 23.000000)" fill="#41B883">
            <path d="M84.5375881,0 L166.491643,37.7064397 C168.502786,38.4759589 168.502786,42.3235548 166.491643,43.093074 L159.452645,46.1711507 L159.452645,76.9519178 C161.966573,76.9519178 163.977715,80.0299945 163.977715,83.8775904 C163.977715,87.7251863 161.966573,90.803263 159.452645,90.803263 L159.452645,93.8813397 C161.966573,95.420378 163.474929,100.037493 163.474929,104.654608 L163.474929,114.658357 C158.447073,114.658357 152.916432,114.658357 147.888575,114.658357 L147.888575,104.654608 C147.888575,100.037493 149.899718,95.420378 152.413646,93.8813397 L152.413646,90.803263 L151.91086,90.803263 C149.396932,90.803263 147.38579,87.7251863 147.38579,83.8775904 C147.38579,80.0299945 149.396932,76.9519178 151.91086,76.9519178 L152.413646,76.9519178 L152.413646,49.2492274 L84.5375881,80.0299945 C84.0348025,80.7995137 84.0348025,80.7995137 83.5320169,80.0299945 L1.07517625,43.093074 C-0.433180595,42.3235548 -0.433180595,38.4759589 1.57796186,37.7064397 L83.5320169,0 C84.0348025,0 84.0348025,0 84.5375881,0 Z M135.821721,67.7176876 L135.821721,137.743933 C101.129513,152.364797 66.9400916,153.134316 32.7506699,137.743933 L32.7506699,68.4872068 L81.5208744,90.0337438 C83.0292313,90.803263 85.0403737,91.5727822 86.5487306,90.803263 L135.821721,67.7176876 Z" id="Shape"></path>
        </g>
    </g>
</svg>